<?xml version="1.0" encoding="UTF-8" standalone="no"?>
<!DOCTYPE svg PUBLIC "-//W3C//DTD SVG 1.1//EN" "http://www.w3.org/Graphics/SVG/1.1/DTD/svg11.dtd">
<svg width="100%" height="100%" viewBox="0 0 129 32" version="1.1" xmlns="http://www.w3.org/2000/svg" xmlns:xlink="http://www.w3.org/1999/xlink" xml:space="preserve" xmlns:serif="http://www.serif.com/" style="fill-rule:evenodd;clip-rule:evenodd;stroke-linejoin:round;stroke-miterlimit:2;">
    <g transform="matrix(1,0,0,1,-16,0)">
        <circle cx="32" cy="16" r="16" style="fill:rgb(245,197,28);"/>
    </g>
    <path d="M115.271,18.928L118.572,18.607C118.77,19.715 119.173,20.529 119.781,21.048C120.388,21.568 121.207,21.827 122.239,21.827C123.331,21.827 124.154,21.596 124.708,21.134C125.262,20.672 125.539,20.131 125.539,19.512C125.539,19.115 125.423,18.777 125.19,18.498C124.957,18.219 124.55,17.977 123.969,17.771C123.572,17.633 122.667,17.389 121.253,17.037C119.435,16.586 118.159,16.032 117.426,15.375C116.394,14.451 115.879,13.324 115.879,11.995C115.879,11.139 116.121,10.339 116.606,9.594C117.091,8.849 117.79,8.282 118.703,7.892C119.616,7.503 120.718,7.308 122.01,7.308C124.118,7.308 125.705,7.77 126.771,8.694C127.837,9.619 128.396,10.853 128.45,12.396L125.058,12.545C124.913,11.682 124.601,11.061 124.124,10.683C123.646,10.304 122.93,10.115 121.975,10.115C120.99,10.115 120.218,10.318 119.66,10.723C119.301,10.983 119.122,11.33 119.122,11.766C119.122,12.163 119.29,12.503 119.626,12.786C120.054,13.145 121.093,13.519 122.743,13.909C124.393,14.298 125.614,14.701 126.404,15.118C127.195,15.534 127.814,16.103 128.261,16.825C128.708,17.547 128.931,18.439 128.931,19.501C128.931,20.464 128.664,21.365 128.129,22.205C127.594,23.046 126.838,23.67 125.86,24.079C124.882,24.488 123.664,24.692 122.204,24.692C120.08,24.692 118.449,24.201 117.311,23.22C116.173,22.238 115.493,20.807 115.271,18.928ZM94.113,7.594L97.505,7.594L97.505,16.693C97.505,18.137 97.547,19.073 97.631,19.501C97.776,20.189 98.122,20.741 98.668,21.157C99.214,21.573 99.961,21.781 100.908,21.781C101.871,21.781 102.597,21.585 103.086,21.191C103.575,20.798 103.869,20.315 103.968,19.742C104.068,19.169 104.117,18.217 104.117,16.888L104.117,7.594L107.509,7.594L107.509,16.418C107.509,18.435 107.418,19.86 107.234,20.693C107.051,21.526 106.713,22.228 106.22,22.801C105.727,23.374 105.068,23.831 104.243,24.171C103.418,24.511 102.341,24.681 101.012,24.681C99.407,24.681 98.191,24.496 97.362,24.125C96.533,23.754 95.878,23.273 95.396,22.681C94.915,22.089 94.598,21.468 94.445,20.819C94.224,19.856 94.113,18.435 94.113,16.556L94.113,7.594ZM54.627,24.394L51.475,24.394L51.475,7.594L54.776,7.594L61.651,18.813L61.651,7.594L64.803,7.594L64.803,24.394L61.399,24.394L54.627,13.439L54.627,24.394ZM81.228,24.394L77.848,24.394L77.848,17.324L71.694,7.594L75.67,7.594L79.624,14.241L83.497,7.594L87.405,7.594L81.228,17.347L81.228,24.394Z" style="fill:white;fill-rule:nonzero;"/>
</svg>
