<svg width="89" height="23" viewBox="0 0 89 23" fill="none" xmlns="http://www.w3.org/2000/svg">
<path d="M8.00969 16.69H16.5297V22H0.629688V16.99L9.02969 6.04H0.629688V0.76H16.5297V5.77L8.00969 16.69ZM26.8762 22.21C24.8762 22.21 23.0362 21.74 21.3562 20.8C19.6962 19.86 18.3762 18.56 17.3962 16.9C16.4162 15.24 15.9262 13.37 15.9262 11.29C15.9262 9.21 16.4162 7.34 17.3962 5.68C18.3762 4.02 19.6962 2.73 21.3562 1.81C23.0362 0.869999 24.8762 0.399999 26.8762 0.399999C28.8762 0.399999 30.7062 0.869999 32.3662 1.81C34.0262 2.73 35.3362 4.02 36.2962 5.68C37.2762 7.34 37.7662 9.21 37.7662 11.29C37.7662 13.37 37.2762 15.24 36.2962 16.9C35.3362 18.56 34.0162 19.86 32.3362 20.8C30.6762 21.74 28.8562 22.21 26.8762 22.21ZM26.8762 16C28.1962 16 29.2162 15.58 29.9362 14.74C30.6562 13.88 31.0162 12.73 31.0162 11.29C31.0162 9.83 30.6562 8.68 29.9362 7.84C29.2162 6.98 28.1962 6.55 26.8762 6.55C25.5362 6.55 24.5062 6.98 23.7862 7.84C23.0662 8.68 22.7062 9.83 22.7062 11.29C22.7062 12.73 23.0662 13.88 23.7862 14.74C24.5062 15.58 25.5362 16 26.8762 16ZM48.7188 22.21C46.7188 22.21 44.8788 21.74 43.1988 20.8C41.5388 19.86 40.2188 18.56 39.2388 16.9C38.2588 15.24 37.7688 13.37 37.7688 11.29C37.7688 9.21 38.2588 7.34 39.2388 5.68C40.2188 4.02 41.5388 2.73 43.1988 1.81C44.8788 0.869999 46.7188 0.399999 48.7188 0.399999C50.7188 0.399999 52.5488 0.869999 54.2088 1.81C55.8688 2.73 57.1788 4.02 58.1388 5.68C59.1188 7.34 59.6088 9.21 59.6088 11.29C59.6088 13.37 59.1188 15.24 58.1388 16.9C57.1788 18.56 55.8588 19.86 54.1788 20.8C52.5188 21.74 50.6988 22.21 48.7188 22.21ZM48.7188 16C50.0388 16 51.0588 15.58 51.7788 14.74C52.4988 13.88 52.8588 12.73 52.8588 11.29C52.8588 9.83 52.4988 8.68 51.7788 7.84C51.0588 6.98 50.0388 6.55 48.7188 6.55C47.3788 6.55 46.3488 6.98 45.6288 7.84C44.9088 8.68 44.5488 9.83 44.5488 11.29C44.5488 12.73 44.9088 13.88 45.6288 14.74C46.3488 15.58 47.3788 16 48.7188 16ZM79.9813 22H73.3213L66.2713 11.32V22H59.6113V0.76H66.2713L73.3213 11.62V0.76H79.9813V22ZM85.0902 22.24C83.9302 22.24 83.0002 21.93 82.3002 21.31C81.6002 20.69 81.2502 19.91 81.2502 18.97C81.2502 18.01 81.6002 17.22 82.3002 16.6C83.0002 15.96 83.9302 15.64 85.0902 15.64C86.2302 15.64 87.1502 15.96 87.8502 16.6C88.5502 17.22 88.9002 18.01 88.9002 18.97C88.9002 19.91 88.5502 20.69 87.8502 21.31C87.1502 21.93 86.2302 22.24 85.0902 22.24Z" fill="white"/>
</svg>
